<svg width="977" height="977" viewBox="0 0 977 977" fill="none" xmlns="http://www.w3.org/2000/svg">
<g filter="url(#filter0_if)">
<path d="M484.215 884.57C700.592 884.57 876 709.162 876 492.785C876 276.408 700.592 101 484.215 101C267.838 101 92.4297 276.408 92.4297 492.785C92.4297 709.162 267.838 884.57 484.215 884.57Z" fill="url(#paint0_linear)" fill-opacity="0.5"/>
</g>
<g filter="url(#filter1_i)">
<path d="M484.215 856.357C685.01 856.357 847.787 693.581 847.787 492.786C847.787 291.99 685.01 129.214 484.215 129.214C283.42 129.214 120.644 291.99 120.644 492.786C120.644 693.581 283.42 856.357 484.215 856.357Z" fill="url(#paint1_linear)"/>
</g>
<defs>
<filter id="filter0_if" x="47.4297" y="56.0002" width="873.57" height="873.57" filterUnits="userSpaceOnUse" color-interpolation-filters="sRGB">
<feFlood flood-opacity="0" result="BackgroundImageFix"/>
<feBlend mode="normal" in="SourceGraphic" in2="BackgroundImageFix" result="shape"/>
<feColorMatrix in="SourceAlpha" type="matrix" values="0 0 0 0 0 0 0 0 0 0 0 0 0 0 0 0 0 0 127 0" result="hardAlpha"/>
<feOffset dy="20"/>
<feGaussianBlur stdDeviation="35"/>
<feComposite in2="hardAlpha" operator="arithmetic" k2="-1" k3="1"/>
<feColorMatrix type="matrix" values="0 0 0 0 1 0 0 0 0 1 0 0 0 0 1 0 0 0 0.69 0"/>
<feBlend mode="normal" in2="shape" result="effect1_innerShadow"/>
<feGaussianBlur stdDeviation="22.5" result="effect2_foregroundBlur"/>
</filter>
<filter id="filter1_i" x="120.644" y="129.214" width="727.143" height="747.143" filterUnits="userSpaceOnUse" color-interpolation-filters="sRGB">
<feFlood flood-opacity="0" result="BackgroundImageFix"/>
<feBlend mode="normal" in="SourceGraphic" in2="BackgroundImageFix" result="shape"/>
<feColorMatrix in="SourceAlpha" type="matrix" values="0 0 0 0 0 0 0 0 0 0 0 0 0 0 0 0 0 0 127 0" result="hardAlpha"/>
<feOffset dy="20"/>
<feGaussianBlur stdDeviation="35"/>
<feComposite in2="hardAlpha" operator="arithmetic" k2="-1" k3="1"/>
<feColorMatrix type="matrix" values="0 0 0 0 1 0 0 0 0 1 0 0 0 0 1 0 0 0 0.69 0"/>
<feBlend mode="normal" in2="shape" result="effect1_innerShadow"/>
</filter>
<linearGradient id="paint0_linear" x1="484.215" y1="101" x2="484.215" y2="884.57" gradientUnits="userSpaceOnUse">
<stop stop-color="#FFD358"/>
<stop offset="1" stop-color="#FF8342"/>
</linearGradient>
<linearGradient id="paint1_linear" x1="484.215" y1="129.213" x2="484.215" y2="856.357" gradientUnits="userSpaceOnUse">
<stop stop-color="#FFD358"/>
<stop offset="1" stop-color="#FF8342"/>
</linearGradient>
</defs>
</svg>
