<svg width="977" height="977" viewBox="0 0 977 977" fill="none" xmlns="http://www.w3.org/2000/svg">
<g clip-path="url(#clip0)">
<g filter="url(#filter0_i)">
<mask id="mask0" style="mask-type:alpha" maskUnits="userSpaceOnUse" x="0" y="160" width="980" height="601">
<path fill-rule="evenodd" clip-rule="evenodd" d="M211.862 382.752C199.861 379.896 187.399 378.391 174.616 378.391C78.1782 378.391 0 464.041 0 569.695C0 673.09 74.8696 757.327 168.454 760.883V760.999H173.924L174.616 761L175.308 760.999H815.096H815.559C906.322 760.999 979.905 680.388 979.905 580.947C979.905 482.129 907.239 401.905 817.258 400.906C801.539 349.647 775.141 302.53 739.582 263.573C679.096 197.307 597.061 160.079 511.522 160.079C425.983 160.079 343.947 197.307 283.462 263.573C252.143 297.885 227.931 338.526 211.862 382.752Z" fill="white"/>
</mask>
<g mask="url(#mask0)">
<g filter="url(#filter1_i)">
<path fill-rule="evenodd" clip-rule="evenodd" d="M211.862 382.752C199.861 379.896 187.399 378.391 174.616 378.391C78.1782 378.391 0 464.041 0 569.695C0 673.09 74.8696 757.327 168.454 760.883V760.999H173.924L174.616 761L175.308 760.999H815.096H815.559C906.322 760.999 979.905 680.388 979.905 580.947C979.905 482.129 907.239 401.905 817.258 400.906C801.539 349.647 775.141 302.53 739.582 263.573C679.096 197.307 597.061 160.079 511.522 160.079C425.983 160.079 343.947 197.307 283.462 263.573C252.143 297.885 227.931 338.526 211.862 382.752Z" fill="url(#paint0_linear)"/>
</g>
<path d="M211.862 382.752L210.003 391.711L217.182 393.42L219.849 386.08L211.862 382.752ZM168.454 760.883H177.024V752.024L168.757 751.71L168.454 760.883ZM168.454 760.998H159.883V770.176H168.454V760.998ZM173.924 760.998L173.941 751.82H173.924V760.998ZM174.615 760.999L174.599 770.177H174.633L174.615 760.999ZM175.308 760.998V751.82H175.291L175.308 760.998ZM815.095 760.998L815.108 751.82H815.095V760.998ZM815.559 760.998L815.546 770.176H815.559V760.998ZM817.258 400.906L809.115 403.769L811.031 410.015L817.169 410.083L817.258 400.906ZM739.582 263.573L733.453 269.988L739.582 263.573ZM283.462 263.573L289.59 269.988L283.462 263.573ZM213.722 373.794C201.114 370.792 188.029 369.213 174.615 369.213V387.569C186.769 387.569 198.607 388.999 210.003 391.711L213.722 373.794ZM174.615 369.213C73.262 369.213 -8.57031 459.17 -8.57031 569.695H8.57004C8.57004 468.911 83.0941 387.569 174.615 387.569V369.213ZM-8.57031 569.695C-8.57031 677.862 69.7963 766.317 168.149 770.054L168.757 751.71C79.9426 748.336 8.57004 668.318 8.57004 569.695H-8.57031ZM159.883 760.883V760.998H177.024V760.883H159.883ZM168.454 770.176H173.924V751.82H168.454V770.176ZM173.907 770.176L174.599 770.177L174.633 751.821L173.941 751.82L173.907 770.176ZM174.633 770.177L175.325 770.176L175.291 751.82L174.599 751.821L174.633 770.177ZM175.308 770.176H815.095V751.82H175.308V770.176ZM815.084 770.176H815.546L815.571 751.82H815.108L815.084 770.176ZM815.559 770.176C911.241 770.176 988.475 685.258 988.475 580.947H971.335C971.335 675.517 901.411 751.82 815.559 751.82V770.176ZM988.475 580.947C988.475 477.288 912.201 392.781 817.346 391.729L817.169 410.083C902.277 411.027 971.335 486.971 971.335 580.947H988.475ZM825.399 398.042C809.28 345.475 782.202 297.136 745.711 257.158L733.453 269.988C768.079 307.922 793.797 353.818 809.115 403.769L825.399 398.042ZM745.711 257.158C683.634 189.148 599.398 150.901 511.522 150.901V169.257C594.725 169.257 674.559 205.465 733.453 269.988L745.711 257.158ZM511.522 150.901C423.646 150.901 339.41 189.148 277.333 257.158L289.59 269.988C348.484 205.465 428.319 169.257 511.522 169.257V150.901ZM277.333 257.158C245.193 292.369 220.355 334.066 203.875 379.424L219.849 386.08C235.507 342.985 259.094 303.399 289.59 269.988L277.333 257.158Z" fill="white" fill-opacity="0.21"/>
</g>
</g>
</g>
<defs>
<filter id="filter0_i" x="0" y="160.079" width="979.905" height="612.921" filterUnits="userSpaceOnUse" color-interpolation-filters="sRGB">
<feFlood flood-opacity="0" result="BackgroundImageFix"/>
<feBlend mode="normal" in="SourceGraphic" in2="BackgroundImageFix" result="shape"/>
<feColorMatrix in="SourceAlpha" type="matrix" values="0 0 0 0 0 0 0 0 0 0 0 0 0 0 0 0 0 0 127 0" result="hardAlpha"/>
<feOffset dy="12"/>
<feGaussianBlur stdDeviation="17.5"/>
<feComposite in2="hardAlpha" operator="arithmetic" k2="-1" k3="1"/>
<feColorMatrix type="matrix" values="0 0 0 0 0.820833 0 0 0 0 0.820833 0 0 0 0 0.820833 0 0 0 0.53 0"/>
<feBlend mode="normal" in2="shape" result="effect1_innerShadow"/>
</filter>
<filter id="filter1_i" x="0" y="160.079" width="979.905" height="612.921" filterUnits="userSpaceOnUse" color-interpolation-filters="sRGB">
<feFlood flood-opacity="0" result="BackgroundImageFix"/>
<feBlend mode="normal" in="SourceGraphic" in2="BackgroundImageFix" result="shape"/>
<feColorMatrix in="SourceAlpha" type="matrix" values="0 0 0 0 0 0 0 0 0 0 0 0 0 0 0 0 0 0 127 0" result="hardAlpha"/>
<feOffset dy="12"/>
<feGaussianBlur stdDeviation="17.5"/>
<feComposite in2="hardAlpha" operator="arithmetic" k2="-1" k3="1"/>
<feColorMatrix type="matrix" values="0 0 0 0 1 0 0 0 0 1 0 0 0 0 1 0 0 0 1 0"/>
<feBlend mode="normal" in2="shape" result="effect1_innerShadow"/>
</filter>
<linearGradient id="paint0_linear" x1="489.952" y1="160.079" x2="489.952" y2="761" gradientUnits="userSpaceOnUse">
<stop stop-color="#EBEBEB" stop-opacity="0.63"/>
<stop offset="1" stop-color="#A9A9A9" stop-opacity="0.83"/>
</linearGradient>
<clipPath id="clip0">
<rect width="977" height="977" fill="white"/>
</clipPath>
</defs>
</svg>
