<svg width="977" height="977" viewBox="0 0 977 977" fill="none" xmlns="http://www.w3.org/2000/svg">
<g filter="url(#filter0_f)">
<path d="M547.039 756.478C754.217 756.478 922.169 696.198 922.169 621.838C922.169 547.479 754.217 487.198 547.039 487.198C339.861 487.198 171.91 547.479 171.91 621.838C171.91 696.198 339.861 756.478 547.039 756.478Z" fill="#C8D6DE" fill-opacity="0.29"/>
</g>
<g filter="url(#filter1_i)">
<mask id="mask0" style="mask-type:alpha" maskUnits="userSpaceOnUse" x="119" y="214" width="856" height="490">
<path fill-rule="evenodd" clip-rule="evenodd" d="M304.648 395.492C294.188 393.167 283.325 391.942 272.183 391.942C188.125 391.942 119.982 461.655 119.982 547.649C119.982 631.804 185.241 700.365 266.812 703.259V703.353H271.545L272.183 703.355L272.821 703.353H830.439L830.849 703.354C909.964 703.354 974.095 637.743 974.095 556.807C974.095 476.377 910.761 411.08 832.329 410.268C818.628 368.547 795.619 330.198 764.625 298.49C711.904 244.555 640.399 214.254 565.841 214.254C491.282 214.254 419.777 244.555 367.056 298.49C339.759 326.417 318.654 359.496 304.648 395.492Z" fill="white"/>
</mask>
<g mask="url(#mask0)">
<path fill-rule="evenodd" clip-rule="evenodd" d="M304.648 395.492C294.188 393.167 283.325 391.942 272.183 391.942C188.125 391.942 119.982 461.655 119.982 547.649C119.982 631.804 185.241 700.365 266.812 703.259V703.353H271.545L272.183 703.355L272.821 703.353H830.439L830.849 703.354C909.964 703.354 974.095 637.743 974.095 556.807C974.095 476.377 910.761 411.08 832.329 410.268C818.628 368.547 795.619 330.198 764.625 298.49C711.904 244.555 640.399 214.254 565.841 214.254C491.282 214.254 419.777 244.555 367.056 298.49C339.759 326.417 318.654 359.496 304.648 395.492Z" fill="url(#paint0_linear)"/>
<path d="M304.648 395.492L302.788 403.858L309.968 405.454L312.635 398.6L304.648 395.492ZM266.812 703.259H275.382V694.988L267.115 694.695L266.812 703.259ZM266.812 703.353H258.241V711.923H266.812V703.353ZM271.545 703.353L271.563 694.783H271.545V703.353ZM272.183 703.355L272.165 711.925L272.201 711.924L272.183 703.355ZM272.821 703.353V694.783H272.803L272.821 703.353ZM830.439 703.353L830.451 694.783H830.439V703.353ZM830.848 703.354L830.836 711.924H830.848V703.354ZM832.329 410.268L824.187 412.942L826.102 418.774L832.24 418.837L832.329 410.268ZM764.625 298.49L770.753 292.499L764.625 298.49ZM565.84 214.254V205.684V214.254ZM367.056 298.49L360.928 292.499L367.056 298.49ZM306.508 387.127C295.44 384.666 283.955 383.372 272.183 383.372V400.512C282.695 400.512 292.934 401.668 302.788 403.858L306.508 387.127ZM272.183 383.372C183.209 383.372 111.412 457.106 111.412 547.649H128.552C128.552 466.203 193.041 400.512 272.183 400.512V383.372ZM111.412 547.649C111.412 636.259 180.168 708.76 266.507 711.824L267.115 694.695C190.314 691.969 128.552 627.347 128.552 547.649H111.412ZM258.241 703.259V703.353H275.382V703.259H258.241ZM266.812 711.923H271.545V694.783H266.812V711.923ZM271.527 711.923L272.165 711.924L272.201 694.785L271.563 694.783L271.527 711.923ZM272.201 711.924L272.839 711.923L272.803 694.783L272.165 694.785L272.201 711.924ZM272.821 711.923H830.439V694.783H272.821V711.923ZM830.426 711.923L830.836 711.924L830.861 694.784L830.451 694.783L830.426 711.923ZM830.848 711.924C914.875 711.924 982.665 642.291 982.665 556.807H965.524C965.524 633.194 905.045 694.784 830.848 694.784V711.924ZM982.665 556.807C982.665 471.856 915.723 402.561 832.418 401.698L832.24 418.837C905.799 419.599 965.524 480.898 965.524 556.807H982.665ZM840.472 407.594C826.37 364.651 802.681 325.162 770.753 292.499L758.496 304.48C788.557 335.233 810.887 372.442 824.187 412.942L840.472 407.594ZM770.753 292.499C716.442 236.936 642.736 205.684 565.84 205.684V222.824C638.062 222.824 707.367 252.173 758.496 304.48L770.753 292.499ZM565.84 205.684C488.945 205.684 415.24 236.936 360.928 292.499L373.185 304.48C424.314 252.173 493.619 222.824 565.84 222.824V205.684ZM360.928 292.499C332.807 321.267 311.078 355.331 296.661 392.384L312.635 398.6C326.23 363.66 346.709 331.566 373.185 304.48L360.928 292.499Z" fill="white" fill-opacity="0.2"/>
</g>
</g>
<g filter="url(#filter2_f)">
<path d="M428.508 851.423C636.391 851.423 804.913 793.926 804.913 723C804.913 652.074 636.391 594.577 428.508 594.577C220.626 594.577 52.1035 652.074 52.1035 723C52.1035 793.926 220.626 851.423 428.508 851.423Z" fill="#C8D6DE" fill-opacity="0.29"/>
</g>
<g filter="url(#filter3_bi)">
<mask id="mask1" style="mask-type:alpha" maskUnits="userSpaceOnUse" x="0" y="334" width="858" height="467">
<path fill-rule="evenodd" clip-rule="evenodd" d="M185.293 507.107C174.797 504.889 163.898 503.721 152.718 503.721C68.3741 503.721 0 570.214 0 652.237C0 732.507 65.4805 797.902 147.328 800.663V800.753H152.016L152.718 800.754L153.42 800.753H712.985H713.283C792.665 800.753 857.018 738.171 857.018 660.972C857.018 584.256 793.466 521.974 714.768 521.199C701.021 481.405 677.933 444.826 646.834 414.583C593.934 363.138 522.186 334.237 447.374 334.237C372.562 334.237 300.814 363.138 247.914 414.583C220.523 441.22 199.347 472.772 185.293 507.107Z" fill="white"/>
</mask>
<g mask="url(#mask1)">
<path fill-rule="evenodd" clip-rule="evenodd" d="M185.293 507.107C174.797 504.889 163.898 503.721 152.718 503.721C68.3741 503.721 0 570.214 0 652.237C0 732.507 65.4805 797.902 147.328 800.663V800.753H152.016L152.718 800.754L153.42 800.753H712.985H713.283C792.665 800.753 857.018 738.171 857.018 660.972C857.018 584.256 793.466 521.974 714.768 521.199C701.021 481.405 677.933 444.826 646.834 414.583C593.934 363.138 522.186 334.237 447.374 334.237C372.562 334.237 300.814 363.138 247.914 414.583C220.523 441.22 199.347 472.772 185.293 507.107Z" fill="url(#paint1_linear)"/>
<path d="M185.293 507.107L183.522 515.492L190.517 516.97L193.225 510.353L185.293 507.107ZM147.328 800.663H155.898V792.377L147.617 792.097L147.328 800.663ZM147.328 800.752H138.758V809.323H147.328V800.752ZM152.016 800.752L152.035 792.182H152.016V800.752ZM152.718 800.754L152.699 809.324H152.737L152.718 800.754ZM153.42 800.752V792.182H153.401L153.42 800.752ZM712.985 800.752L712.993 792.182H712.985V800.752ZM713.283 800.752L713.274 809.323H713.283V800.752ZM714.768 521.199L706.668 523.997L708.641 529.71L714.684 529.769L714.768 521.199ZM187.065 498.721C175.989 496.381 164.496 495.15 152.718 495.15V512.291C163.299 512.291 173.605 513.396 183.522 515.492L187.065 498.721ZM152.718 495.15C63.8678 495.15 -8.57031 565.257 -8.57031 652.237H8.57004C8.57004 575.171 72.8803 512.291 152.718 512.291V495.15ZM-8.57031 652.237C-8.57031 737.355 60.8052 806.32 147.039 809.228L147.617 792.097C70.1556 789.485 8.57004 727.657 8.57004 652.237H-8.57031ZM138.758 800.663V800.752H155.898V800.663H138.758ZM147.328 809.323H152.016V792.182H147.328V809.323ZM151.997 809.323L152.699 809.324L152.737 792.184L152.035 792.182L151.997 809.323ZM152.737 809.324L153.439 809.323L153.401 792.182L152.699 792.184L152.737 809.324ZM153.42 809.323H712.985V792.182H153.42V809.323ZM712.976 809.323H713.274L713.291 792.182H712.993L712.976 809.323ZM713.283 809.323C797.172 809.323 865.588 743.127 865.588 660.972H848.447C848.447 733.214 788.159 792.182 713.283 792.182V809.323ZM865.588 660.972C865.588 579.33 798.022 513.448 714.853 512.629L714.684 529.769C788.91 530.5 848.447 589.181 848.447 660.972H865.588ZM722.869 518.401C708.683 477.338 684.867 439.615 652.809 408.439L640.859 420.727C671 450.039 693.359 485.472 706.668 523.997L722.869 518.401ZM652.809 408.439C598.285 355.414 524.383 325.667 447.374 325.667V342.807C519.989 342.807 589.583 370.861 640.859 420.727L652.809 408.439ZM447.374 325.667C370.365 325.667 296.464 355.414 241.939 408.439L253.889 420.727C305.164 370.861 374.759 342.807 447.374 342.807V325.667ZM241.939 408.439C213.704 435.897 191.862 468.434 177.362 503.86L193.225 510.353C206.832 477.109 227.342 446.544 253.889 420.727L241.939 408.439Z" fill="white" fill-opacity="0.2"/>
</g>
</g>
<defs>
<filter id="filter0_f" x="127.91" y="443.198" width="838.259" height="357.28" filterUnits="userSpaceOnUse" color-interpolation-filters="sRGB">
<feFlood flood-opacity="0" result="BackgroundImageFix"/>
<feBlend mode="normal" in="SourceGraphic" in2="BackgroundImageFix" result="shape"/>
<feGaussianBlur stdDeviation="22" result="effect1_foregroundBlur"/>
</filter>
<filter id="filter1_i" x="119.982" y="214.254" width="854.112" height="501.101" filterUnits="userSpaceOnUse" color-interpolation-filters="sRGB">
<feFlood flood-opacity="0" result="BackgroundImageFix"/>
<feBlend mode="normal" in="SourceGraphic" in2="BackgroundImageFix" result="shape"/>
<feColorMatrix in="SourceAlpha" type="matrix" values="0 0 0 0 0 0 0 0 0 0 0 0 0 0 0 0 0 0 127 0" result="hardAlpha"/>
<feOffset dy="12"/>
<feGaussianBlur stdDeviation="17.5"/>
<feComposite in2="hardAlpha" operator="arithmetic" k2="-1" k3="1"/>
<feColorMatrix type="matrix" values="0 0 0 0 1 0 0 0 0 1 0 0 0 0 1 0 0 0 1 0"/>
<feBlend mode="normal" in2="shape" result="effect1_innerShadow"/>
</filter>
<filter id="filter2_f" x="8.10352" y="550.577" width="840.809" height="344.846" filterUnits="userSpaceOnUse" color-interpolation-filters="sRGB">
<feFlood flood-opacity="0" result="BackgroundImageFix"/>
<feBlend mode="normal" in="SourceGraphic" in2="BackgroundImageFix" result="shape"/>
<feGaussianBlur stdDeviation="22" result="effect1_foregroundBlur"/>
</filter>
<filter id="filter3_bi" x="-38" y="296.237" width="933.018" height="542.517" filterUnits="userSpaceOnUse" color-interpolation-filters="sRGB">
<feFlood flood-opacity="0" result="BackgroundImageFix"/>
<feGaussianBlur in="BackgroundImage" stdDeviation="19"/>
<feComposite in2="SourceAlpha" operator="in" result="effect1_backgroundBlur"/>
<feBlend mode="normal" in="SourceGraphic" in2="effect1_backgroundBlur" result="shape"/>
<feColorMatrix in="SourceAlpha" type="matrix" values="0 0 0 0 0 0 0 0 0 0 0 0 0 0 0 0 0 0 127 0" result="hardAlpha"/>
<feOffset dy="12"/>
<feGaussianBlur stdDeviation="17.5"/>
<feComposite in2="hardAlpha" operator="arithmetic" k2="-1" k3="1"/>
<feColorMatrix type="matrix" values="0 0 0 0 1 0 0 0 0 1 0 0 0 0 1 0 0 0 1 0"/>
<feBlend mode="normal" in2="shape" result="effect2_innerShadow"/>
</filter>
<linearGradient id="paint0_linear" x1="547.039" y1="214.254" x2="547.039" y2="703.355" gradientUnits="userSpaceOnUse">
<stop stop-color="#717171" stop-opacity="0.39"/>
<stop offset="1" stop-color="#616263" stop-opacity="0.9"/>
</linearGradient>
<linearGradient id="paint1_linear" x1="428.508" y1="334.237" x2="428.508" y2="800.754" gradientUnits="userSpaceOnUse">
<stop stop-color="#EBEBEB" stop-opacity="0.63"/>
<stop offset="1" stop-color="#A9A9A9" stop-opacity="0.83"/>
</linearGradient>
</defs>
</svg>
