<svg width="977" height="977" viewBox="0 0 977 977" fill="none" xmlns="http://www.w3.org/2000/svg">
<g clip-path="url(#clip0)">
<g filter="url(#filter0_f)">
<path d="M550.039 756.478C757.217 756.478 925.169 696.198 925.169 621.838C925.169 547.479 757.217 487.198 550.039 487.198C342.861 487.198 174.91 547.479 174.91 621.838C174.91 696.198 342.861 756.478 550.039 756.478Z" fill="#C8D6DE" fill-opacity="0.29"/>
</g>
<g filter="url(#filter1_i)">
<mask id="mask0" style="mask-type:alpha" maskUnits="userSpaceOnUse" x="122" y="214" width="856" height="490">
<path fill-rule="evenodd" clip-rule="evenodd" d="M307.649 395.492C297.188 393.167 286.325 391.942 275.183 391.942C191.125 391.942 122.983 461.655 122.983 547.649C122.983 631.804 188.241 700.365 269.812 703.259V703.353H274.545L275.183 703.355L275.821 703.353H833.439L833.849 703.354C912.964 703.354 977.095 637.743 977.095 556.807C977.095 476.377 913.761 411.08 835.33 410.268C821.629 368.547 798.619 330.198 767.625 298.49C714.904 244.555 643.4 214.254 568.841 214.254C494.282 214.254 422.778 244.555 370.057 298.49C342.759 326.417 321.654 359.496 307.649 395.492Z" fill="white"/>
</mask>
<g mask="url(#mask0)">
<path fill-rule="evenodd" clip-rule="evenodd" d="M307.649 395.492C297.188 393.167 286.325 391.942 275.183 391.942C191.125 391.942 122.983 461.655 122.983 547.649C122.983 631.804 188.241 700.365 269.812 703.259V703.353H274.545L275.183 703.355L275.821 703.353H833.439L833.849 703.354C912.964 703.354 977.095 637.743 977.095 556.807C977.095 476.377 913.761 411.08 835.33 410.268C821.629 368.547 798.619 330.198 767.625 298.49C714.904 244.555 643.4 214.254 568.841 214.254C494.282 214.254 422.778 244.555 370.057 298.49C342.759 326.417 321.654 359.496 307.649 395.492Z" fill="url(#paint0_linear)"/>
<path d="M307.648 395.492L305.789 403.858L312.968 405.454L315.635 398.6L307.648 395.492ZM269.812 703.259H278.382V694.988L270.115 694.695L269.812 703.259ZM269.812 703.353H261.242V711.923H269.812V703.353ZM274.545 703.353L274.563 694.783H274.545V703.353ZM275.183 703.355L275.165 711.925L275.201 711.924L275.183 703.355ZM275.821 703.353V694.783H275.803L275.821 703.353ZM833.439 703.353L833.451 694.783H833.439V703.353ZM833.849 703.354L833.837 711.924H833.849V703.354ZM835.329 410.268L827.187 412.942L829.102 418.774L835.24 418.837L835.329 410.268ZM767.625 298.49L773.754 292.499L767.625 298.49ZM568.841 214.254V205.684V214.254ZM370.056 298.49L363.928 292.499L370.056 298.49ZM309.508 387.127C298.441 384.666 286.955 383.372 275.183 383.372V400.512C285.695 400.512 295.934 401.668 305.789 403.858L309.508 387.127ZM275.183 383.372C186.209 383.372 114.412 457.106 114.412 547.649H131.553C131.553 466.203 196.042 400.512 275.183 400.512V383.372ZM114.412 547.649C114.412 636.259 183.168 708.76 269.508 711.824L270.115 694.695C193.315 691.969 131.553 627.347 131.553 547.649H114.412ZM261.242 703.259V703.353H278.382V703.259H261.242ZM269.812 711.923H274.545V694.783H269.812V711.923ZM274.527 711.923L275.165 711.924L275.201 694.785L274.563 694.783L274.527 711.923ZM275.201 711.924L275.839 711.923L275.803 694.783L275.165 694.785L275.201 711.924ZM275.821 711.923H833.439V694.783H275.821V711.923ZM833.426 711.923L833.837 711.924L833.861 694.784L833.451 694.783L833.426 711.923ZM833.849 711.924C917.875 711.924 985.665 642.291 985.665 556.807H968.525C968.525 633.194 908.045 694.784 833.849 694.784V711.924ZM985.665 556.807C985.665 471.856 918.723 402.561 835.419 401.698L835.24 418.837C908.799 419.599 968.525 480.898 968.525 556.807H985.665ZM843.472 407.594C829.37 364.651 805.681 325.162 773.754 292.499L761.497 304.48C791.557 335.233 813.887 372.442 827.187 412.942L843.472 407.594ZM773.754 292.499C719.442 236.936 645.737 205.684 568.841 205.684V222.824C641.062 222.824 710.367 252.173 761.497 304.48L773.754 292.499ZM568.841 205.684C491.946 205.684 418.24 236.936 363.928 292.499L376.185 304.48C427.315 252.173 496.619 222.824 568.841 222.824V205.684ZM363.928 292.499C335.807 321.267 314.079 355.331 299.661 392.384L315.635 398.6C329.23 363.66 349.709 331.566 376.185 304.48L363.928 292.499Z" fill="white" fill-opacity="0.2"/>
</g>
</g>
<g filter="url(#filter2_f)">
<path d="M431.508 851.423C639.391 851.423 807.913 793.926 807.913 723C807.913 652.074 639.391 594.577 431.508 594.577C223.625 594.577 55.1033 652.074 55.1033 723C55.1033 793.926 223.625 851.423 431.508 851.423Z" fill="#C8D6DE" fill-opacity="0.29"/>
</g>
<g filter="url(#filter3_bi)">
<mask id="mask1" style="mask-type:alpha" maskUnits="userSpaceOnUse" x="3" y="334" width="858" height="467">
<path fill-rule="evenodd" clip-rule="evenodd" d="M188.293 507.107C177.797 504.889 166.898 503.721 155.718 503.721C71.3741 503.721 3 570.214 3 652.237C3 732.507 68.4805 797.902 150.328 800.663V800.753H155.016L155.718 800.754L156.42 800.753H715.985H716.283C795.665 800.753 860.018 738.171 860.018 660.972C860.018 584.256 796.466 521.974 717.768 521.199C704.021 481.405 680.933 444.826 649.834 414.583C596.934 363.138 525.186 334.237 450.374 334.237C375.562 334.237 303.814 363.138 250.914 414.583C223.523 441.22 202.347 472.772 188.293 507.107Z" fill="white"/>
</mask>
<g mask="url(#mask1)">
<path fill-rule="evenodd" clip-rule="evenodd" d="M188.293 507.107C177.797 504.889 166.898 503.721 155.718 503.721C71.3741 503.721 3 570.214 3 652.237C3 732.507 68.4805 797.902 150.328 800.663V800.753H155.016L155.718 800.754L156.42 800.753H715.985H716.283C795.665 800.753 860.018 738.171 860.018 660.972C860.018 584.256 796.466 521.974 717.768 521.199C704.021 481.405 680.933 444.826 649.834 414.583C596.934 363.138 525.186 334.237 450.374 334.237C375.562 334.237 303.814 363.138 250.914 414.583C223.523 441.22 202.347 472.772 188.293 507.107Z" fill="url(#paint1_linear)"/>
<path d="M188.293 507.107L186.522 515.492L193.517 516.97L196.225 510.353L188.293 507.107ZM150.328 800.663H158.898V792.377L150.617 792.097L150.328 800.663ZM150.328 800.752H141.758V809.323H150.328V800.752ZM155.016 800.752L155.035 792.182H155.016V800.752ZM155.718 800.754L155.699 809.324H155.737L155.718 800.754ZM156.42 800.752V792.182H156.401L156.42 800.752ZM715.985 800.752L715.993 792.182H715.985V800.752ZM716.283 800.752L716.274 809.323H716.283V800.752ZM717.768 521.199L709.668 523.997L711.641 529.71L717.684 529.769L717.768 521.199ZM190.065 498.721C178.989 496.381 167.496 495.15 155.718 495.15V512.291C166.299 512.291 176.605 513.396 186.522 515.492L190.065 498.721ZM155.718 495.15C66.8678 495.15 -5.57031 565.257 -5.57031 652.237H11.57C11.57 575.171 75.8803 512.291 155.718 512.291V495.15ZM-5.57031 652.237C-5.57031 737.355 63.8052 806.32 150.039 809.228L150.617 792.097C73.1556 789.485 11.57 727.657 11.57 652.237H-5.57031ZM141.758 800.663V800.752H158.898V800.663H141.758ZM150.328 809.323H155.016V792.182H150.328V809.323ZM154.997 809.323L155.699 809.324L155.737 792.184L155.035 792.182L154.997 809.323ZM155.737 809.324L156.439 809.323L156.401 792.182L155.699 792.184L155.737 809.324ZM156.42 809.323H715.985V792.182H156.42V809.323ZM715.976 809.323H716.274L716.291 792.182H715.993L715.976 809.323ZM716.283 809.323C800.172 809.323 868.588 743.127 868.588 660.972H851.447C851.447 733.214 791.159 792.182 716.283 792.182V809.323ZM868.588 660.972C868.588 579.33 801.022 513.448 717.853 512.629L717.684 529.769C791.91 530.5 851.447 589.181 851.447 660.972H868.588ZM725.869 518.401C711.683 477.338 687.867 439.615 655.809 408.439L643.859 420.727C674 450.039 696.359 485.472 709.668 523.997L725.869 518.401ZM655.809 408.439C601.285 355.414 527.383 325.667 450.374 325.667V342.807C522.989 342.807 592.583 370.861 643.859 420.727L655.809 408.439ZM450.374 325.667C373.365 325.667 299.464 355.414 244.939 408.439L256.889 420.727C308.164 370.861 377.759 342.807 450.374 342.807V325.667ZM244.939 408.439C216.704 435.897 194.862 468.434 180.362 503.86L196.225 510.353C209.832 477.109 230.342 446.544 256.889 420.727L244.939 408.439Z" fill="white" fill-opacity="0.2"/>
</g>
</g>
</g>
<defs>
<filter id="filter0_f" x="130.91" y="443.198" width="838.259" height="357.28" filterUnits="userSpaceOnUse" color-interpolation-filters="sRGB">
<feFlood flood-opacity="0" result="BackgroundImageFix"/>
<feBlend mode="normal" in="SourceGraphic" in2="BackgroundImageFix" result="shape"/>
<feGaussianBlur stdDeviation="22" result="effect1_foregroundBlur"/>
</filter>
<filter id="filter1_i" x="122.983" y="214.254" width="854.112" height="501.101" filterUnits="userSpaceOnUse" color-interpolation-filters="sRGB">
<feFlood flood-opacity="0" result="BackgroundImageFix"/>
<feBlend mode="normal" in="SourceGraphic" in2="BackgroundImageFix" result="shape"/>
<feColorMatrix in="SourceAlpha" type="matrix" values="0 0 0 0 0 0 0 0 0 0 0 0 0 0 0 0 0 0 127 0" result="hardAlpha"/>
<feOffset dy="12"/>
<feGaussianBlur stdDeviation="17.5"/>
<feComposite in2="hardAlpha" operator="arithmetic" k2="-1" k3="1"/>
<feColorMatrix type="matrix" values="0 0 0 0 1 0 0 0 0 1 0 0 0 0 1 0 0 0 1 0"/>
<feBlend mode="normal" in2="shape" result="effect1_innerShadow"/>
</filter>
<filter id="filter2_f" x="11.1033" y="550.577" width="840.809" height="344.846" filterUnits="userSpaceOnUse" color-interpolation-filters="sRGB">
<feFlood flood-opacity="0" result="BackgroundImageFix"/>
<feBlend mode="normal" in="SourceGraphic" in2="BackgroundImageFix" result="shape"/>
<feGaussianBlur stdDeviation="22" result="effect1_foregroundBlur"/>
</filter>
<filter id="filter3_bi" x="-35" y="296.237" width="933.018" height="542.517" filterUnits="userSpaceOnUse" color-interpolation-filters="sRGB">
<feFlood flood-opacity="0" result="BackgroundImageFix"/>
<feGaussianBlur in="BackgroundImage" stdDeviation="19"/>
<feComposite in2="SourceAlpha" operator="in" result="effect1_backgroundBlur"/>
<feBlend mode="normal" in="SourceGraphic" in2="effect1_backgroundBlur" result="shape"/>
<feColorMatrix in="SourceAlpha" type="matrix" values="0 0 0 0 0 0 0 0 0 0 0 0 0 0 0 0 0 0 127 0" result="hardAlpha"/>
<feOffset dy="12"/>
<feGaussianBlur stdDeviation="17.5"/>
<feComposite in2="hardAlpha" operator="arithmetic" k2="-1" k3="1"/>
<feColorMatrix type="matrix" values="0 0 0 0 1 0 0 0 0 1 0 0 0 0 1 0 0 0 1 0"/>
<feBlend mode="normal" in2="shape" result="effect2_innerShadow"/>
</filter>
<linearGradient id="paint0_linear" x1="550.04" y1="214.254" x2="550.04" y2="703.355" gradientUnits="userSpaceOnUse">
<stop stop-color="#717171" stop-opacity="0.39"/>
<stop offset="1" stop-color="#616263" stop-opacity="0.9"/>
</linearGradient>
<linearGradient id="paint1_linear" x1="431.508" y1="334.237" x2="431.508" y2="800.754" gradientUnits="userSpaceOnUse">
<stop stop-color="#EBEBEB" stop-opacity="0.63"/>
<stop offset="1" stop-color="#A9A9A9" stop-opacity="0.83"/>
</linearGradient>
<clipPath id="clip0">
<rect width="977" height="977" fill="white"/>
</clipPath>
</defs>
</svg>
