<svg width="977" height="977" viewBox="0 0 977 977" fill="none" xmlns="http://www.w3.org/2000/svg">
<g filter="url(#filter0_f)">
<path d="M547.04 590.224C754.218 590.224 922.169 529.943 922.169 455.584C922.169 381.224 754.218 320.944 547.04 320.944C339.861 320.944 171.91 381.224 171.91 455.584C171.91 529.943 339.861 590.224 547.04 590.224Z" fill="#C8D6DE" fill-opacity="0.29"/>
</g>
<g filter="url(#filter1_i)">
<mask id="mask0" style="mask-type:alpha" maskUnits="userSpaceOnUse" x="119" y="94" width="856" height="490">
<path fill-rule="evenodd" clip-rule="evenodd" d="M304.648 275.238C294.188 272.913 283.325 271.688 272.183 271.688C188.125 271.688 119.982 341.4 119.982 427.394C119.982 511.549 185.241 580.111 266.812 583.005V583.099H271.545L272.183 583.101L272.821 583.099H830.439L830.849 583.1C909.964 583.1 974.095 517.488 974.095 436.552C974.095 356.122 910.761 290.826 832.329 290.014C818.628 248.292 795.619 209.943 764.625 178.235C711.904 124.301 640.399 94 565.841 94C491.282 94 419.777 124.301 367.056 178.235C339.759 206.162 318.654 239.241 304.648 275.238Z" fill="white"/>
</mask>
<g mask="url(#mask0)">
<path fill-rule="evenodd" clip-rule="evenodd" d="M304.648 275.238C294.188 272.913 283.325 271.688 272.183 271.688C188.125 271.688 119.982 341.4 119.982 427.394C119.982 511.549 185.241 580.111 266.812 583.005V583.099H271.545L272.183 583.101L272.821 583.099H830.439L830.849 583.1C909.964 583.1 974.095 517.488 974.095 436.552C974.095 356.122 910.761 290.826 832.329 290.014C818.628 248.292 795.619 209.943 764.625 178.235C711.904 124.301 640.399 94 565.841 94C491.282 94 419.777 124.301 367.056 178.235C339.759 206.162 318.654 239.241 304.648 275.238Z" fill="url(#paint0_linear)"/>
<path d="M304.648 275.238L302.788 283.604L309.968 285.2L312.635 278.345L304.648 275.238ZM266.812 583.005H275.382V574.734L267.115 574.441L266.812 583.005ZM266.812 583.099H258.241V591.669H266.812V583.099ZM271.545 583.099L271.563 574.529H271.545V583.099ZM272.183 583.101L272.165 591.671L272.201 591.67L272.183 583.101ZM272.821 583.099V574.529H272.803L272.821 583.099ZM830.439 583.099L830.451 574.529H830.439V583.099ZM830.848 583.1L830.836 591.67H830.848V583.1ZM832.329 290.014L824.187 292.688L826.102 298.52L832.24 298.583L832.329 290.014ZM764.625 178.235L770.753 172.245L764.625 178.235ZM565.84 94.0001V85.4299V94.0001ZM367.056 178.235L360.928 172.245L367.056 178.235ZM306.508 266.873C295.44 264.412 283.955 263.118 272.183 263.118V280.258C282.695 280.258 292.934 281.414 302.788 283.604L306.508 266.873ZM272.183 263.118C183.209 263.118 111.412 336.852 111.412 427.394H128.552C128.552 345.949 193.041 280.258 272.183 280.258V263.118ZM111.412 427.394C111.412 516.005 180.168 588.506 266.507 591.57L267.115 574.441C190.314 571.715 128.552 507.093 128.552 427.394H111.412ZM258.241 583.005V583.099H275.382V583.005H258.241ZM266.812 591.669H271.545V574.529H266.812V591.669ZM271.527 591.669L272.165 591.67L272.201 574.531L271.563 574.529L271.527 591.669ZM272.201 591.67L272.839 591.669L272.803 574.529L272.165 574.531L272.201 591.67ZM272.821 591.669H830.439V574.529H272.821V591.669ZM830.426 591.669L830.836 591.67L830.861 574.53L830.451 574.529L830.426 591.669ZM830.848 591.67C914.875 591.67 982.665 522.037 982.665 436.553H965.524C965.524 512.94 905.045 574.53 830.848 574.53V591.67ZM982.665 436.553C982.665 351.602 915.723 282.307 832.418 281.444L832.24 298.583C905.799 299.345 965.524 360.644 965.524 436.553H982.665ZM840.472 287.34C826.37 244.397 802.681 204.908 770.753 172.245L758.496 184.226C788.557 214.979 810.887 252.188 824.187 292.688L840.472 287.34ZM770.753 172.245C716.442 116.682 642.736 85.4299 565.84 85.4299V102.57C638.062 102.57 707.367 131.919 758.496 184.226L770.753 172.245ZM565.84 85.4299C488.945 85.4299 415.24 116.682 360.928 172.245L373.185 184.226C424.314 131.919 493.619 102.57 565.84 102.57V85.4299ZM360.928 172.245C332.807 201.012 311.078 235.077 296.661 272.13L312.635 278.345C326.23 243.406 346.709 211.312 373.185 184.226L360.928 172.245Z" fill="white" fill-opacity="0.2"/>
</g>
</g>
<g filter="url(#filter2_i)">
<path d="M788.046 471.36H668.478C660.166 471.36 653.051 477.324 651.601 485.509L612.051 708.693C610.19 719.191 618.265 728.823 628.928 728.823H675.169C687.089 728.823 695.369 740.69 691.256 751.879L652.565 857.112C645.666 875.872 671.009 889.25 682.611 872.967L837.716 655.299C845.802 643.952 837.691 628.211 823.758 628.211H763.302C750.46 628.211 742.179 614.612 748.073 603.203L803.275 496.368C809.169 484.96 800.888 471.36 788.046 471.36Z" fill="url(#paint1_linear)"/>
<path d="M788.046 471.36H668.478C660.166 471.36 653.051 477.324 651.601 485.509L612.051 708.693C610.19 719.191 618.265 728.823 628.928 728.823H675.169C687.089 728.823 695.369 740.69 691.256 751.879L652.565 857.112C645.666 875.872 671.009 889.25 682.611 872.967L837.716 655.299C845.802 643.952 837.691 628.211 823.758 628.211H763.302C750.46 628.211 742.179 614.612 748.073 603.203L803.275 496.368C809.169 484.96 800.888 471.36 788.046 471.36Z" stroke="white" stroke-width="0.5"/>
</g>
<g filter="url(#filter3_f)">
<path d="M428.508 685.169C636.391 685.169 804.913 627.672 804.913 556.746C804.913 485.819 636.391 428.323 428.508 428.323C220.626 428.323 52.1035 485.819 52.1035 556.746C52.1035 627.672 220.626 685.169 428.508 685.169Z" fill="#C8D6DE" fill-opacity="0.29"/>
</g>
<g filter="url(#filter4_bi)">
<mask id="mask1" style="mask-type:alpha" maskUnits="userSpaceOnUse" x="0" y="167" width="858" height="468">
<path fill-rule="evenodd" clip-rule="evenodd" d="M185.293 340.852C174.797 338.634 163.898 337.466 152.718 337.466C68.3741 337.466 0 403.96 0 485.983C0 566.252 65.4805 631.648 147.328 634.409V634.498H152.016L152.718 634.5L153.42 634.498H712.985H713.283C792.665 634.498 857.018 571.916 857.018 494.718C857.018 418.002 793.466 355.72 714.768 354.945C701.021 315.15 677.933 278.572 646.834 248.329C593.934 196.884 522.186 167.982 447.374 167.982C372.562 167.982 300.814 196.884 247.914 248.329C220.523 274.966 199.347 306.518 185.293 340.852Z" fill="white"/>
</mask>
<g mask="url(#mask1)">
<path fill-rule="evenodd" clip-rule="evenodd" d="M185.293 340.852C174.797 338.634 163.898 337.466 152.718 337.466C68.3741 337.466 0 403.96 0 485.983C0 566.252 65.4805 631.648 147.328 634.409V634.498H152.016L152.718 634.5L153.42 634.498H712.985H713.283C792.665 634.498 857.018 571.916 857.018 494.718C857.018 418.002 793.466 355.72 714.768 354.945C701.021 315.15 677.933 278.572 646.834 248.329C593.934 196.884 522.186 167.982 447.374 167.982C372.562 167.982 300.814 196.884 247.914 248.329C220.523 274.966 199.347 306.518 185.293 340.852Z" fill="url(#paint2_linear)"/>
<path d="M185.293 340.852L183.522 349.237L190.517 350.716L193.225 344.099L185.293 340.852ZM147.328 634.409H155.898V626.123L147.617 625.843L147.328 634.409ZM147.328 634.498H138.758V643.068H147.328V634.498ZM152.016 634.498L152.035 625.928H152.016V634.498ZM152.718 634.5L152.699 643.07H152.737L152.718 634.5ZM153.42 634.498V625.928H153.401L153.42 634.498ZM712.985 634.498L712.993 625.928H712.985V634.498ZM713.283 634.498L713.274 643.068H713.283V634.498ZM714.768 354.945L706.668 357.743L708.641 363.455L714.684 363.514L714.768 354.945ZM187.065 332.467C175.989 330.127 164.496 328.896 152.718 328.896V346.036C163.299 346.036 173.605 347.142 183.522 349.237L187.065 332.467ZM152.718 328.896C63.8678 328.896 -8.57031 399.003 -8.57031 485.983H8.57004C8.57004 408.917 72.8803 346.036 152.718 346.036V328.896ZM-8.57031 485.983C-8.57031 571.101 60.8052 640.065 147.039 642.974L147.617 625.843C70.1556 623.231 8.57004 561.403 8.57004 485.983H-8.57031ZM138.758 634.409V634.498H155.898V634.409H138.758ZM147.328 643.068H152.016V625.928H147.328V643.068ZM151.997 643.068L152.699 643.07L152.737 625.93L152.035 625.928L151.997 643.068ZM152.737 643.07L153.439 643.068L153.401 625.928L152.699 625.93L152.737 643.07ZM153.42 643.068H712.985V625.928H153.42V643.068ZM712.976 643.068H713.274L713.291 625.928H712.993L712.976 643.068ZM713.283 643.068C797.172 643.068 865.588 576.873 865.588 494.718H848.447C848.447 566.96 788.159 625.928 713.283 625.928V643.068ZM865.588 494.718C865.588 413.076 798.022 347.194 714.853 346.375L714.684 363.514C788.91 364.246 848.447 422.927 848.447 494.718H865.588ZM722.869 352.147C708.683 311.084 684.867 273.361 652.809 242.185L640.859 254.473C671 283.784 693.359 319.218 706.668 357.743L722.869 352.147ZM652.809 242.185C598.285 189.16 524.383 159.412 447.374 159.412V176.553C519.989 176.553 589.583 204.607 640.859 254.473L652.809 242.185ZM447.374 159.412C370.365 159.412 296.464 189.16 241.939 242.185L253.889 254.473C305.164 204.607 374.759 176.553 447.374 176.553V159.412ZM241.939 242.185C213.704 269.643 191.862 302.18 177.362 337.606L193.225 344.099C206.832 310.855 227.342 280.29 253.889 254.473L241.939 242.185Z" fill="white" fill-opacity="0.2"/>
</g>
</g>
<defs>
<filter id="filter0_f" x="127.91" y="276.944" width="838.259" height="357.28" filterUnits="userSpaceOnUse" color-interpolation-filters="sRGB">
<feFlood flood-opacity="0" result="BackgroundImageFix"/>
<feBlend mode="normal" in="SourceGraphic" in2="BackgroundImageFix" result="shape"/>
<feGaussianBlur stdDeviation="22" result="effect1_foregroundBlur"/>
</filter>
<filter id="filter1_i" x="119.982" y="94" width="854.112" height="501.101" filterUnits="userSpaceOnUse" color-interpolation-filters="sRGB">
<feFlood flood-opacity="0" result="BackgroundImageFix"/>
<feBlend mode="normal" in="SourceGraphic" in2="BackgroundImageFix" result="shape"/>
<feColorMatrix in="SourceAlpha" type="matrix" values="0 0 0 0 0 0 0 0 0 0 0 0 0 0 0 0 0 0 127 0" result="hardAlpha"/>
<feOffset dy="12"/>
<feGaussianBlur stdDeviation="17.5"/>
<feComposite in2="hardAlpha" operator="arithmetic" k2="-1" k3="1"/>
<feColorMatrix type="matrix" values="0 0 0 0 1 0 0 0 0 1 0 0 0 0 1 0 0 0 1 0"/>
<feBlend mode="normal" in2="shape" result="effect1_innerShadow"/>
</filter>
<filter id="filter2_i" x="609.533" y="471.11" width="231.646" height="427.426" filterUnits="userSpaceOnUse" color-interpolation-filters="sRGB">
<feFlood flood-opacity="0" result="BackgroundImageFix"/>
<feBlend mode="normal" in="SourceGraphic" in2="BackgroundImageFix" result="shape"/>
<feColorMatrix in="SourceAlpha" type="matrix" values="0 0 0 0 0 0 0 0 0 0 0 0 0 0 0 0 0 0 127 0" result="hardAlpha"/>
<feOffset dx="-2" dy="18"/>
<feGaussianBlur stdDeviation="23"/>
<feComposite in2="hardAlpha" operator="arithmetic" k2="-1" k3="1"/>
<feColorMatrix type="matrix" values="0 0 0 0 1 0 0 0 0 1 0 0 0 0 1 0 0 0 1 0"/>
<feBlend mode="normal" in2="shape" result="effect1_innerShadow"/>
</filter>
<filter id="filter3_f" x="8.10352" y="384.323" width="840.809" height="344.846" filterUnits="userSpaceOnUse" color-interpolation-filters="sRGB">
<feFlood flood-opacity="0" result="BackgroundImageFix"/>
<feBlend mode="normal" in="SourceGraphic" in2="BackgroundImageFix" result="shape"/>
<feGaussianBlur stdDeviation="22" result="effect1_foregroundBlur"/>
</filter>
<filter id="filter4_bi" x="-38" y="129.982" width="933.018" height="542.517" filterUnits="userSpaceOnUse" color-interpolation-filters="sRGB">
<feFlood flood-opacity="0" result="BackgroundImageFix"/>
<feGaussianBlur in="BackgroundImage" stdDeviation="19"/>
<feComposite in2="SourceAlpha" operator="in" result="effect1_backgroundBlur"/>
<feBlend mode="normal" in="SourceGraphic" in2="effect1_backgroundBlur" result="shape"/>
<feColorMatrix in="SourceAlpha" type="matrix" values="0 0 0 0 0 0 0 0 0 0 0 0 0 0 0 0 0 0 127 0" result="hardAlpha"/>
<feOffset dy="12"/>
<feGaussianBlur stdDeviation="17.5"/>
<feComposite in2="hardAlpha" operator="arithmetic" k2="-1" k3="1"/>
<feColorMatrix type="matrix" values="0 0 0 0 1 0 0 0 0 1 0 0 0 0 1 0 0 0 1 0"/>
<feBlend mode="normal" in2="shape" result="effect2_innerShadow"/>
</filter>
<linearGradient id="paint0_linear" x1="547.039" y1="94" x2="547.039" y2="583.101" gradientUnits="userSpaceOnUse">
<stop stop-color="#717171" stop-opacity="0.39"/>
<stop offset="1" stop-color="#616263" stop-opacity="0.9"/>
</linearGradient>
<linearGradient id="paint1_linear" x1="658.911" y1="449.689" x2="714.203" y2="888.093" gradientUnits="userSpaceOnUse">
<stop stop-color="#FFB039"/>
<stop offset="1" stop-color="#FFE609"/>
</linearGradient>
<linearGradient id="paint2_linear" x1="428.508" y1="167.982" x2="428.508" y2="634.5" gradientUnits="userSpaceOnUse">
<stop stop-color="#EBEBEB" stop-opacity="0.63"/>
<stop offset="1" stop-color="#A9A9A9" stop-opacity="0.83"/>
</linearGradient>
</defs>
</svg>
