<svg width="977" height="977" viewBox="0 0 977 977" fill="none" xmlns="http://www.w3.org/2000/svg">
<g filter="url(#filter0_i)">
<mask id="mask0" style="mask-type:alpha" maskUnits="userSpaceOnUse" x="128" y="128" width="721" height="721">
<path fill-rule="evenodd" clip-rule="evenodd" d="M488.5 128.553C459.999 128.553 436.895 151.657 436.895 180.158V281.152C436.895 311.693 399.969 326.988 378.373 305.392L306.402 233.421C286.248 213.267 253.574 213.267 233.421 233.421C213.267 253.574 213.267 286.248 233.421 306.401L305.393 378.374C326.988 399.969 311.694 436.895 281.153 436.895H180.158C151.657 436.895 128.553 459.999 128.553 488.5C128.553 517.001 151.657 540.105 180.158 540.105H280.036C310.576 540.105 325.872 577.031 304.276 598.626L233.42 669.482C213.267 689.634 213.267 722.31 233.42 742.463C253.574 762.616 286.248 762.616 306.401 742.463L378.374 670.49C399.969 648.894 436.895 664.19 436.895 694.73V796.842C436.895 825.343 459.999 848.448 488.5 848.448C517.001 848.448 540.105 825.343 540.105 796.842V695.847C540.105 665.306 577.031 650.011 598.626 671.607L669.482 742.463C689.635 762.616 722.31 762.616 742.463 742.463C762.616 722.31 762.616 689.635 742.463 669.482L671.607 598.626C650.012 577.031 665.306 540.105 695.848 540.105H796.842C825.343 540.105 848.447 517.001 848.447 488.5C848.447 459.999 825.343 436.895 796.842 436.895H694.73C664.19 436.895 648.894 399.969 670.49 378.374L742.463 306.401C762.615 286.248 762.615 253.574 742.463 233.42C722.31 213.267 689.635 213.267 669.482 233.42L598.626 304.276C577.031 325.872 540.105 310.576 540.105 280.036V180.158C540.105 151.657 517.001 128.553 488.5 128.553Z" fill="white"/>
</mask>
<g mask="url(#mask0)">
<path fill-rule="evenodd" clip-rule="evenodd" d="M488.5 128.553C459.999 128.553 436.895 151.657 436.895 180.158V281.152C436.895 311.693 399.969 326.988 378.373 305.392L306.402 233.421C286.248 213.267 253.574 213.267 233.421 233.421C213.267 253.574 213.267 286.248 233.421 306.401L305.393 378.374C326.988 399.969 311.694 436.895 281.153 436.895H180.158C151.657 436.895 128.553 459.999 128.553 488.5C128.553 517.001 151.657 540.105 180.158 540.105H280.036C310.576 540.105 325.872 577.031 304.276 598.626L233.42 669.482C213.267 689.634 213.267 722.31 233.42 742.463C253.574 762.616 286.248 762.616 306.401 742.463L378.374 670.49C399.969 648.894 436.895 664.19 436.895 694.73V796.842C436.895 825.343 459.999 848.448 488.5 848.448C517.001 848.448 540.105 825.343 540.105 796.842V695.847C540.105 665.306 577.031 650.011 598.626 671.607L669.482 742.463C689.635 762.616 722.31 762.616 742.463 742.463C762.616 722.31 762.616 689.635 742.463 669.482L671.607 598.626C650.012 577.031 665.306 540.105 695.848 540.105H796.842C825.343 540.105 848.447 517.001 848.447 488.5C848.447 459.999 825.343 436.895 796.842 436.895H694.73C664.19 436.895 648.894 399.969 670.49 378.374L742.463 306.401C762.615 286.248 762.615 253.574 742.463 233.42C722.31 213.267 689.635 213.267 669.482 233.42L598.626 304.276C577.031 325.872 540.105 310.576 540.105 280.036V180.158C540.105 151.657 517.001 128.553 488.5 128.553Z" fill="url(#paint0_linear)"/>
<path d="M306.402 233.421L312.462 227.36L306.402 233.421ZM233.421 233.421L239.481 239.481L233.421 233.421ZM233.421 306.401L239.481 300.341L233.421 306.401ZM233.42 669.481L227.36 663.422L233.42 669.481ZM233.42 742.463L239.48 736.403L233.42 742.463ZM306.401 742.463L300.341 736.403L306.401 742.463ZM669.482 742.463L663.422 748.523L669.482 742.463ZM742.463 669.481L736.403 675.541L742.463 669.481ZM742.463 306.401L748.523 312.461L742.463 306.401ZM742.463 233.42L748.523 227.36L742.463 233.42ZM669.482 233.42L675.542 239.48L669.482 233.42ZM670.49 378.374L664.43 372.314L670.49 378.374ZM671.607 598.626L677.667 592.566L671.607 598.626ZM305.393 378.374L299.333 384.434L305.393 378.374ZM445.465 180.158C445.465 156.39 464.732 137.123 488.5 137.123V119.982C455.266 119.982 428.325 146.924 428.325 180.158H445.465ZM445.465 281.152V180.158H428.325V281.152H445.465ZM300.342 239.481L372.313 311.452L384.434 299.332L312.462 227.36L300.342 239.481ZM239.481 239.481C256.287 222.674 283.535 222.674 300.342 239.481L312.462 227.36C288.961 203.86 250.86 203.86 227.361 227.36L239.481 239.481ZM239.481 300.341C222.675 283.535 222.675 256.287 239.481 239.481L227.361 227.36C203.86 250.86 203.86 288.961 227.361 312.462L239.481 300.341ZM311.453 372.314L239.481 300.341L227.361 312.462L299.333 384.434L311.453 372.314ZM180.158 445.465H281.153V428.324H180.158V445.465ZM137.123 488.5C137.123 464.732 156.39 445.465 180.158 445.465V428.324C146.924 428.324 119.982 455.266 119.982 488.5H137.123ZM180.158 531.535C156.39 531.535 137.123 512.268 137.123 488.5H119.982C119.982 521.734 146.924 548.675 180.158 548.675V531.535ZM280.036 531.535H180.158V548.675H280.036V531.535ZM239.48 675.541L310.335 604.686L298.216 592.566L227.36 663.422L239.48 675.541ZM239.48 736.403C222.674 719.596 222.674 692.348 239.48 675.541L227.36 663.422C203.86 686.922 203.86 725.022 227.36 748.523L239.48 736.403ZM300.341 736.403C283.535 753.209 256.287 753.209 239.48 736.403L227.36 748.523C250.86 772.023 288.961 772.023 312.461 748.523L300.341 736.403ZM372.313 664.43L300.341 736.403L312.461 748.523L384.434 676.55L372.313 664.43ZM445.465 796.842V694.73H428.325V796.842H445.465ZM488.5 839.877C464.732 839.877 445.465 820.61 445.465 796.842H428.325C428.325 830.076 455.266 857.017 488.5 857.017V839.877ZM531.535 796.842C531.535 820.61 512.268 839.877 488.5 839.877V857.017C521.734 857.017 548.675 830.076 548.675 796.842H531.535ZM531.535 695.847V796.842H548.675V695.847H531.535ZM675.542 736.403L604.686 665.547L592.566 677.667L663.422 748.523L675.542 736.403ZM736.403 736.403C719.597 753.209 692.348 753.209 675.542 736.403L663.422 748.523C686.922 772.023 725.023 772.023 748.523 748.523L736.403 736.403ZM736.403 675.541C753.209 692.348 753.209 719.596 736.403 736.403L748.523 748.523C772.023 725.023 772.023 686.922 748.523 663.422L736.403 675.541ZM665.547 604.686L736.403 675.541L748.523 663.422L677.667 592.566L665.547 604.686ZM796.842 531.535H695.848V548.675H796.842V531.535ZM839.877 488.5C839.877 512.268 820.61 531.535 796.842 531.535V548.675C830.076 548.675 857.018 521.734 857.018 488.5H839.877ZM796.842 445.465C820.61 445.465 839.877 464.732 839.877 488.5H857.018C857.018 455.266 830.076 428.324 796.842 428.324V445.465ZM694.73 445.465H796.842V428.324H694.73V445.465ZM736.403 300.341L664.43 372.314L676.55 384.434L748.523 312.461L736.403 300.341ZM736.403 239.48C753.209 256.287 753.209 283.535 736.403 300.341L748.523 312.461C772.023 288.961 772.023 250.86 748.523 227.36L736.403 239.48ZM675.542 239.48C692.348 222.674 719.597 222.674 736.403 239.48L748.523 227.36C725.022 203.86 686.922 203.86 663.422 227.36L675.542 239.48ZM604.686 310.335L675.542 239.48L663.422 227.36L592.566 298.216L604.686 310.335ZM531.535 180.158V280.036H548.675V180.158H531.535ZM488.5 137.123C512.268 137.123 531.535 156.39 531.535 180.158H548.675C548.675 146.924 521.734 119.982 488.5 119.982V137.123ZM592.566 298.216C576.369 314.412 548.675 302.941 548.675 280.036H531.535C531.535 318.211 577.692 337.331 604.686 310.335L592.566 298.216ZM694.73 428.324C671.825 428.324 660.353 400.631 676.55 384.434L664.43 372.314C637.435 399.308 656.554 445.465 694.73 445.465V428.324ZM677.667 592.566C661.47 576.369 672.941 548.675 695.848 548.675V531.535C657.671 531.535 638.553 577.691 665.547 604.686L677.667 592.566ZM548.675 695.847C548.675 672.941 576.369 661.47 592.566 677.667L604.686 665.547C577.692 638.553 531.535 657.671 531.535 695.847H548.675ZM384.434 676.55C400.631 660.353 428.325 671.825 428.325 694.73H445.465C445.465 656.554 399.308 637.435 372.313 664.43L384.434 676.55ZM280.036 548.675C302.941 548.675 314.412 576.369 298.216 592.566L310.335 604.686C337.33 577.691 318.211 531.535 280.036 531.535V548.675ZM299.333 384.434C315.53 400.631 304.059 428.324 281.153 428.324V445.465C319.329 445.465 338.447 399.308 311.453 372.314L299.333 384.434ZM428.325 281.152C428.325 304.058 400.631 315.529 384.434 299.332L372.313 311.452C399.308 338.447 445.465 319.328 445.465 281.152H428.325Z" fill="white" fill-opacity="0.2"/>
</g>
</g>
<defs>
<filter id="filter0_i" x="128.553" y="128.553" width="719.895" height="729.895" filterUnits="userSpaceOnUse" color-interpolation-filters="sRGB">
<feFlood flood-opacity="0" result="BackgroundImageFix"/>
<feBlend mode="normal" in="SourceGraphic" in2="BackgroundImageFix" result="shape"/>
<feColorMatrix in="SourceAlpha" type="matrix" values="0 0 0 0 0 0 0 0 0 0 0 0 0 0 0 0 0 0 127 0" result="hardAlpha"/>
<feOffset dy="10"/>
<feGaussianBlur stdDeviation="18"/>
<feComposite in2="hardAlpha" operator="arithmetic" k2="-1" k3="1"/>
<feColorMatrix type="matrix" values="0 0 0 0 1 0 0 0 0 1 0 0 0 0 1 0 0 0 0.83 0"/>
<feBlend mode="normal" in2="shape" result="effect1_innerShadow"/>
</filter>
<linearGradient id="paint0_linear" x1="312.397" y1="128.553" x2="734.916" y2="848.447" gradientUnits="userSpaceOnUse">
<stop stop-color="#38BBE4"/>
<stop offset="1" stop-color="#B1EBFE" stop-opacity="0.57"/>
</linearGradient>
</defs>
</svg>
